<?xml version="1.0" encoding="utf-8"?>
<!-- Generator: Adobe Illustrator 27.6.1, SVG Export Plug-In . SVG Version: 6.00 Build 0)  -->
<svg version="1.1" xmlns="http://www.w3.org/2000/svg" xmlns:xlink="http://www.w3.org/1999/xlink" x="0px" y="0px"
	 viewBox="0 0 1433.59 529.46" style="enable-background:new 0 0 1433.59 529.46;" xml:space="preserve">
<style type="text/css">
	.st0{fill:#0089C6;}
	.st1{fill:none;}
</style>
<g id="Artwork">
	<g>
		<path class="st0" d="M991.48,180.09l-49.76,123.66l-50.51-123.66h-44.66l68.33,157.51c4.77,11,14.51,17.11,26.84,17.11
			c12.36,0,21.64-6.12,26.41-17.12l68.35-157.5H991.48z"/>
		<path class="st0" d="M1121.54,319.29c-18.7-0.18-38.68-9.07-45.42-24.34l130.1-45.7l-4.36-13.13
			c-12.26-36.93-42.57-61.32-85.97-61.32c-52.13,0-90.02,41.14-90.02,89.99c0,52.94,41.81,89.91,95.67,89.91
			c34.04,0,66.82-16.63,83.22-46.18l-35.46-12.63C1158.97,311.37,1140.24,319.47,1121.54,319.29z M1118.1,210.16
			c20.72,0,33.8,11.2,38.76,21.32l-91.05,32.09C1063.6,233.79,1085.73,210.16,1118.1,210.16z"/>
		<path class="st0" d="M564.48,174.83c-53.22,0-94.43,39.31-94.43,89.93s41.21,90.05,94.43,90.05c53.22,0,94.43-39.32,94.43-89.93
			S617.7,174.83,564.48,174.83z M564.38,317.61c-30.81,0-54.01-22.77-54.01-52.97s23.19-52.62,54.01-52.62
			c30.81,0,54.01,22.41,54.01,52.62S595.2,317.61,564.38,317.61z"/>
		<path class="st0" d="M850.66,236.12c-12.25-36.94-42.56-61.31-85.97-61.31c-52.12,0-90.02,41.13-90.02,89.98
			c0,52.94,41.82,89.91,95.68,89.91c34.04,0,66.81-16.63,83.22-46.18l-35.47-12.63c-10.31,15.48-29.04,23.58-47.75,23.4
			c-18.7-0.18-38.68-9.06-45.43-24.34l130.1-45.69L850.66,236.12z M714.61,263.57c-2.21-29.78,19.92-53.41,52.29-53.41
			c20.72,0,33.81,11.2,38.77,21.32L714.61,263.57z"/>
		<g>
			<path class="st0" d="M337.83,180.08H272.8v42.24h127.79c5.22,0,8.48,3.16,8.49,8.2l0.11,119.14h45.29l0.04-56.81
				C454.56,230.58,402.29,180.08,337.83,180.08z"/>
			<polygon class="st0" points="318.34,354.65 363.77,338.46 363.77,254.28 318.34,238.13 			"/>
			<polygon class="st0" points="227.38,354.65 272.8,338.46 272.8,254.28 227.38,238.13 			"/>
		</g>
	</g>
	<polygon class="st1" points="0.24,529.22 0.25,0.24 1433.36,0.24 1433.36,529.22 	"/>
</g>
<g id="Minimum_Clear_Space">
	<g>
		<g>
		</g>
		<g>
		</g>
		<g>
		</g>
		<g>
		</g>
	</g>
</g>
</svg>
